<svg width="19" height="19" viewBox="0 0 19 19" fill="none" xmlns="http://www.w3.org/2000/svg">
<path d="M9.83707 18.906C9.30707 18.908 8.79707 18.696 8.42307 18.32L0.586069 10.485C0.381742 10.2813 0.224062 10.0358 0.123923 9.76522C0.0237843 9.49467 -0.0164266 9.20561 0.00606857 8.918L0.506069 2.352C0.540612 1.87398 0.746596 1.4245 1.08613 1.08626C1.42567 0.748006 1.87592 0.543729 2.35407 0.511L8.92007 0.0109999C8.97207 -8.19564e-08 9.02307 0 9.07507 0C9.60507 0 10.1121 0.21 10.4851 0.586L18.3231 8.42C18.5089 8.60573 18.6563 8.82624 18.7568 9.06895C18.8574 9.31165 18.9091 9.57179 18.9091 9.8345C18.9091 10.0972 18.8574 10.3573 18.7568 10.6001C18.6563 10.8428 18.5089 11.0633 18.3231 11.249L11.2511 18.32C11.0658 18.5063 10.8455 18.654 10.6028 18.7546C10.36 18.8552 10.0998 18.9067 9.83707 18.906ZM5.59407 3.592C5.26518 3.59209 4.94139 3.6733 4.65137 3.82841C4.36136 3.98353 4.11407 4.20777 3.93142 4.48128C3.74877 4.75479 3.63639 5.06912 3.60423 5.39643C3.57207 5.72375 3.62112 6.05394 3.74705 6.35777C3.87298 6.6616 4.07189 6.92968 4.32617 7.13828C4.58044 7.34687 4.88224 7.48954 5.20482 7.55364C5.52741 7.61775 5.86082 7.60131 6.17553 7.50578C6.49025 7.41026 6.77654 7.2386 7.00907 7.006L7.01607 7L7.02307 6.993L7.01507 7C7.29306 6.71957 7.48181 6.36312 7.55754 5.97558C7.63327 5.58804 7.59259 5.18676 7.44063 4.82231C7.28867 4.45785 7.03222 4.14654 6.70361 3.92759C6.375 3.70865 5.98894 3.59188 5.59407 3.592Z" fill="#9F9F9F"/>
</svg>
