<svg width="17" height="17" viewBox="0 0 17 17" fill="none" xmlns="http://www.w3.org/2000/svg">
<path d="M0 14.1667C0 15.5833 1.08333 16.6667 2.5 16.6667H14.1667C15.5833 16.6667 16.6667 15.5833 16.6667 14.1667V7.5H0V14.1667ZM14.1667 1.66667H12.5V0.833333C12.5 0.333333 12.1667 0 11.6667 0C11.1667 0 10.8333 0.333333 10.8333 0.833333V1.66667H5.83333V0.833333C5.83333 0.333333 5.5 0 5 0C4.5 0 4.16667 0.333333 4.16667 0.833333V1.66667H2.5C1.08333 1.66667 0 2.75 0 4.16667V5.83333H16.6667V4.16667C16.6667 2.75 15.5833 1.66667 14.1667 1.66667Z" fill="#9F9F9F"/>
</svg>
